<svg fill="#FFFF00" height="30px" width="30px" version="1.1" xmlns="http://www.w3.org/2000/svg" viewBox="0 0 512 512" xmlns:xlink="http://www.w3.org/1999/xlink" enable-background="new 0 0 512 512" stroke="#ff0000"><g id="SVGRepo_bgCarrier" stroke-width="0"></g><g id="SVGRepo_tracerCarrier" stroke-linecap="round" stroke-linejoin="round"></g><g id="SVGRepo_iconCarrier"> <g> <g> <path d="m241.4,129.3c-0.7-1.7-1.7-3.4-2.9-4.9-0.2-0.3-0.4-0.5-0.6-0.7 1.1,1.8 2.3,3.7 3.5,5.6z"></path> <path d="m461.2,369.5h-408.4v-316.7h408.3v316.7h0.1zm-125.2,91.7h-158c10.2-29.3 41.7-50.8 79-50.8 37.2,0 68.8,21.4 79,50.8zm126-449.2h-410c-22.1,0-40,17.9-40,40v318.4c0,22.1 17.9,40 40,40h109.9c-17.6,19.4-28.2,44.2-28.2,71.2 0,11.3 9.1,20.4 20.4,20.4h205.7c11.3,0 20.4-9.1 20.4-20.4 0-27-10.6-51.8-28.2-71.2h110c22.1,0 40-17.9 40-40v-318.4c0-22.1-17.9-40-40-40z"></path> <path d="m117.4,227.1l92.4,74.1c8.8,7 21.6,5.7 28.7-3.2 7-8.8 5.6-21.7-3.2-28.7l-47.1-37.7h195.5c11.3,0 20.4-9.1 20.4-20.4 0-11.3-9.1-20.4-20.4-20.4h-195.4l47.1-37.7c8.8-7 10.2-19.9 3.2-28.7-7.1-8.8-19.9-10.2-28.7-3.2l-92.4,74.1c-11.3,11.1-10.7,21.2-0.1,31.8z"></path> </g> </g> </g></svg>